<svg id="Layer_1" data-name="Layer 1" xmlns="http://www.w3.org/2000/svg" viewBox="0 0 120 120">
  <title>_</title>
  <g>
    <rect x="90.32" y="14.84" width="3.87" height="90.32"/>
    <path d="M16.77,105.16H12.9V14.84A14.86,14.86,0,0,1,27.74,0h77.42V3.87H27.74a11,11,0,0,0-11,11Z"/>
    <path d="M79.36,120H14.84A14.86,14.86,0,0,1,0,105.16v-1.93H68.39v1.93a11,11,0,1,0,21.93,0h3.87A14.85,14.85,0,0,1,79.36,120ZM4,107.1a11,11,0,0,0,10.8,9H69.37a14.83,14.83,0,0,1-4.73-9Z"/>
    <path d="M120,68.39H92.26V64.52h23.87V14.84a11,11,0,0,0-21.94,0H90.32a14.84,14.84,0,0,1,29.68,0Z"/>
    <rect x="40.64" y="19.36" width="38.71" height="3.87"/>
    <rect x="40.64" y="38.71" width="38.71" height="3.87"/>
    <rect x="40.64" y="58.07" width="38.71" height="3.87"/>
    <rect x="40.64" y="77.42" width="38.71" height="3.87"/>
    <rect x="27.74" y="19.36" width="6.45" height="3.87"/>
    <rect x="27.74" y="38.71" width="6.45" height="3.87"/>
    <rect x="27.74" y="58.07" width="6.45" height="3.87"/>
    <rect x="27.74" y="77.42" width="6.45" height="3.87"/>
  </g>
</svg>
