<?xml version="1.0" ?><!-- Uploaded to: SVG Repo, www.svgrepo.com, Generator: SVG Repo Mixer Tools -->
<svg fill="#000000" width="800px" height="800px" viewBox="0 0 512 512" id="Sustainable_growth" xmlns="http://www.w3.org/2000/svg"><path d="M266.81,249.16H405v-18H266.84V198.54c32.71-.65,58.12-10.1,75.56-28.18,24.37-25.28,26.5-60.76,25.6-79.67a24.14,24.14,0,0,0-23.07-23.06c-18.9-.9-54.39,1.23-79.66,25.6a78.91,78.91,0,0,0-7.45,8.27,80.14,80.14,0,0,0-7.46-8.27c-25.28-24.37-60.77-26.5-79.66-25.6a24.13,24.13,0,0,0-23.07,23.06c-.9,18.91,1.23,54.39,25.6,79.67,17.45,18.09,42.87,27.54,75.61,28.18v32.62H112.32v18H248.81v37l-87.24,29.46H112.32v18h41.73v33L117.8,394.41l11,14.29,34.29-26.29L193.81,406v40.11h18v-49l-39.76-30.48V331.11l85.76-29,85.77,29v35.52l-39.77,30.48v49h18V406l30.77-23.59,34.29,26.29,10.95-14.29-36.24-27.78v-33H405v-18H354.06l-87.25-29.46ZM165.61,91.55a6.23,6.23,0,0,1,5.94-6c16-.75,45.91.91,66.32,20.59,14.18,13.67,21.76,34.17,22.63,61-13.91-29-41.94-38.25-43.37-38.71L212,144.65c.29.09,26,8.61,35.62,35.87-27-.81-47.66-8.4-61.41-22.66C166.51,137.45,164.85,107.55,165.61,91.55Z"/></svg>