<?xml version="1.0" encoding="utf-8"?>
<!-- Generator: Adobe Illustrator 23.0.3, SVG Export Plug-In . SVG Version: 6.00 Build 0)  -->
<svg version="1.1" id="Layer_1" xmlns="http://www.w3.org/2000/svg" xmlns:xlink="http://www.w3.org/1999/xlink" x="0px" y="0px"
	 viewBox="0 0 32 32" style="enable-background:new 0 0 32 32;" xml:space="preserve">
<g>
	<g>
		<path d="M19.9423828,32H4.0576172C1.8203125,32,0,30.1796875,0,27.9423828c0-6.6171875,5.3828125-12,12-12s12,5.3828125,12,12
			C24,30.1796875,22.1796875,32,19.9423828,32z M12,17.9423828c-5.5136719,0-10,4.4863281-10,10
			C2,29.0771484,2.9228516,30,4.0576172,30h15.8847656C21.0771484,30,22,29.0771484,22,27.9423828
			C22,22.4287109,17.5136719,17.9423828,12,17.9423828z"/>
	</g>
	<g>
		<path d="M18,14H6c-0.5527344,0-1-0.4477539-1-1V7c0-3.8598633,3.140625-7,7-7s7,3.1401367,7,7v6
			C19,13.5522461,18.5527344,14,18,14z M7,12h10V7c0-2.7568359-2.2431641-5-5-5S7,4.2431641,7,7V12z"/>
	</g>
	<g>
		<path d="M20,1c-1.5388794,0-2.9379272,0.5843506-4,1.5368042C17.2248535,3.6353149,18,5.2251587,18,7v6h8V7
			C26,3.6862793,23.3137207,1,20,1z"/>
	</g>
	<g>
		<path d="M20,16.9423218c-1.4129639,0-2.7589722,0.276062-4,0.7613525c4.0949097,1.6013794,7,5.5764771,7,10.2386475
			C23,29.6310425,21.6310425,31,19.9423828,31h8C29.6310425,31,31,29.6310425,31,27.9423218
			C31,21.8671875,26.0751343,16.9423218,20,16.9423218z"/>
	</g>
	<g>
		<path d="M26,14h-8c-0.5527344,0-1-0.4477539-1-1V7c0-1.4125977-0.6074219-2.7680664-1.6679688-3.7192383
			C15.1210938,3.0913086,15,2.8203125,15,2.5361328c0-0.2836914,0.1210938-0.5546875,0.3330078-0.7441406
			C16.6220703,0.6362305,18.2792969,0,20,0c3.859375,0,7,3.1401367,7,7v6C27,13.5522461,26.5527344,14,26,14z M19,12h6V7
			c0-2.7568359-2.2431641-5-5-5c-0.8837891,0-1.7451172,0.2363281-2.5029297,0.6772461C18.4628906,3.9033203,19,5.4257813,19,7V12z"
			/>
	</g>
	<g>
		<path d="M27.9423828,32h-8c-0.5527344,0-1-0.4472656-1-1s0.4472656-1,1-1C21.0771484,30,22,29.0771484,22,27.9423828
			c0-4.1425781-2.4980469-7.7958984-6.3642578-9.3066406C15.2519531,18.4853516,15,18.1162109,15,17.7041016
			s0.2519531-0.78125,0.6357422-0.9311523C17.0449219,16.2216797,18.5136719,15.9423828,20,15.9423828
			c6.6171875,0,12,5.3828125,12,12C32,30.1796875,30.1796875,32,27.9423828,32z M23.4384766,30h4.5039063
			C29.0771484,30,30,29.0771484,30,27.9423828c0-5.5136719-4.4863281-10-10-10
			c-0.4189453,0-0.8359375,0.0263672-1.2509766,0.0800781C22.0039063,20.2197266,24,23.8857422,24,27.9423828
			C24,28.6923828,23.7949219,29.3964844,23.4384766,30z"/>
	</g>
</g>
</svg>
